<?xml version="1.0" encoding="utf-8"?>
<!-- Generator: Adobe Illustrator 14.0.0, SVG Export Plug-In . SVG Version: 6.00 Build 43363)  -->
<!DOCTYPE svg PUBLIC "-//W3C//DTD SVG 1.1//EN" "http://www.w3.org/Graphics/SVG/1.1/DTD/svg11.dtd">
<svg version="1.1" id="Layer_1" xmlns="http://www.w3.org/2000/svg" xmlns:xlink="http://www.w3.org/1999/xlink" x="0px" y="0px"
	 width="700px" height="700px" viewBox="0 0 700 700" enable-background="new 0 0 700 700" xml:space="preserve">
<path fill="#FFFFFF" stroke="#000000" d="M463.727,182.79c0.812,0.153,1.491,0.484,2.043,0.937V83.077H307.656
	c0.143,1.072-0.129,2.135-0.671,3.052c0.766,0.77,1.319,1.801,1.476,3.102c1.877,15.564,4.453,35.729-13.215,43.104
	c-11.025,4.603-24.008,2.904-35.631,2.665c-6.126-0.126-11.86-1.573-17.544-3.277c-1.015,0.688-2.298,1.039-3.785,0.791
	c-4.418-0.737-8.462-2.08-12.299-3.795c-1.471,0.397-3.119,0.093-4.522-1.336c-0.532-0.542-1.033-1.096-1.525-1.652
	c-6.127-1.319-12.146-3.302-18.016-6.244v115.129H465.77v-28.926c-0.354,0.351-0.792,0.668-1.323,0.936
	c-7.006,3.533-16.593,3.604-24.637,1.793c-0.791,0.73-1.88,1.197-3.271,1.197c-1.955,0-3.313-0.921-4.083-2.202
	c-0.77,0.173-1.649,0.115-2.631-0.284c-13.515-5.499-27.442-9.915-40.425-16.658c-4.41-2.291-2.419-7.934,1.34-9.049
	c0.58-0.828,1.538-1.438,2.932-1.628c5.045-0.688,10.08-1.138,15.111-1.403c0.828-0.259,1.719-0.297,2.606-0.124
	c16.543-0.654,33.03,0.742,49.556,3.066C462.229,181.514,463.139,182.055,463.727,182.79z"/>
<path fill="#FFFFFF" stroke="#000000" d="M244.23,234.615v208.462h132.309V234.615H244.23z M282.044,409.022
	c-0.67,0.371-1.478,0.593-2.429,0.593c-0.419,0-0.81-0.044-1.174-0.123c-0.355,0.073-0.727,0.125-1.134,0.123
	c-1.529-0.008-2.911-0.099-4.21-0.363c-0.566,0.229-1.211,0.363-1.943,0.363c-1.62,0-2.832-0.631-3.638-1.576
	c-1.868-0.183-3.103-1.26-3.733-2.649c-0.931-0.387-1.633-1.043-2.107-1.839c-1.588-0.956-2.341-2.792-2.257-4.592
	c-0.107-0.396-0.181-0.805-0.184-1.23c-3.347-7.619-0.492-17.466,6.26-22.965c4.354-3.547,9.981-5.882,15.65-4.234
	c0.044,0.013,0.084,0.03,0.128,0.044c0.434-0.118,0.904-0.188,1.42-0.188c1.601,0,2.796,0.623,3.601,1.55
	c0.082-0.003,0.161-0.012,0.245-0.012c1.729,0,2.99,0.722,3.792,1.774C306.41,378.345,303.243,411.418,282.044,409.022z"/>
<rect x="243.077" y="443.077" fill="#FFFFFF" stroke="#000000" width="77.692" height="158.461"/>
<rect x="321.347" y="443.077" fill="#FFFFFF" stroke="#000000" width="53.46" height="158.461"/>
<rect x="298.846" y="291.538" transform="matrix(0.8683 0.4961 -0.4961 0.8683 207.8625 -112.8071)" fill="#FFFFFF" stroke="#000000" width="35" height="86.923"/>
<rect x="323.461" y="381.418" fill="none" stroke="#000000" width="131.539" height="30.12"/>
<g>
	<g>
		<path d="M308.344,77.548c-4.792-18.612-17.476-32.327-32.655-43.417c-8.449-6.173-17.596-11.42-27.361-15.2
			c-9.864-3.819-20.139-4.785-30.634-4.824c-0.671-0.002-2.075,1.013-0.772,1.018c10.989,0.041,21.181,1.336,31.467,5.318
			c9.652,3.736,18.545,9.338,26.87,15.421c14.583,10.655,26.569,24.397,31.154,42.202C306.571,78.683,308.505,78.171,308.344,77.548
			L308.344,77.548z"/>
	</g>
</g>
<g>
	<g>
		<path d="M214.38,127.274c1.272,0.619,2.559,1.206,3.86,1.762c0.849,0.363,2.245-0.857,1.104-1.345
			c-1.301-0.556-2.588-1.143-3.86-1.762C214.649,125.524,213.263,126.731,214.38,127.274L214.38,127.274z"/>
	</g>
</g>
<g>
	<g>
		<path d="M222.309,11.798c-9.617-0.081-19.737,1.934-27.703,7.617c-9.714,6.93-13.486,17.198-16.146,28.495
			c-5.417,23.002,0.021,47.685,15.978,65.291c0.42,0.464,2.258-0.227,1.8-0.732c-14.246-15.718-19.717-36.448-17.19-57.311
			c1.132-9.35,3.834-21.034,9.65-28.624c7.687-10.031,20.694-13.818,32.84-13.716C222.21,12.823,223.612,11.809,222.309,11.798
			L222.309,11.798z"/>
	</g>
</g>
<g>
	<g>
		<path d="M249.47,75.339c2.588-8.665-8.338-10.274-14.446-11.1c-0.458-0.062-2.11,0.681-1.586,0.752
			c5.89,0.796,16.637,2.281,14.126,10.687C247.445,76.076,249.323,75.83,249.47,75.339L249.47,75.339z"/>
	</g>
</g>
<g>
	<g>
		<path d="M239.731,63.253c-8.4,0.31-13.8,9.54-8.968,16.745c0.403,0.601,2.27-0.065,1.785-0.788
			c-3.936-5.868-0.5-14.497,6.95-14.771C240.507,64.402,241.06,63.205,239.731,63.253L239.731,63.253z"/>
	</g>
</g>
<g>
	<g>
		<path d="M252.544,51.433c-6.151-3.41-13.04-4.318-19.836-5.685c-0.494-0.1-2.195,0.686-1.57,0.812
			c6.694,1.347,13.536,2.206,19.595,5.565C251.254,52.414,252.887,51.624,252.544,51.433L252.544,51.433z"/>
	</g>
</g>
<g>
	<g>
		<path d="M236.891,43.981c-17.952-0.786-31.382,15.378-30.36,32.757c0.045,0.769,1.982,0.334,1.932-0.518
			c-0.932-15.863,10.959-31.704,27.724-30.971C237.033,45.287,238.202,44.038,236.891,43.981L236.891,43.981z"/>
	</g>
</g>
<g>
	<g>
		<path d="M228.003,13.83c24.77,0.003,50.548,0.862,70.468,17.618c15.405,12.958,19.053,33.905,25.562,51.889
			c0.336,0.93,2.262,0.395,1.932-0.518c-6.924-19.128-10.815-39.746-27.141-53.478c-19.627-16.509-46.385-17.012-70.674-17.016
			C227.014,12.325,226.697,13.829,228.003,13.83L228.003,13.83z"/>
	</g>
</g>
<g>
	<g>
		<path d="M244.927,174.602c20.513,0,41.026,0,61.539,0c1.139,0,1.452-1.511,0.146-1.511c-20.513,0-41.025,0-61.539,0
			C243.934,173.091,243.621,174.602,244.927,174.602L244.927,174.602z"/>
	</g>
</g>
<g>
	<g>
		<path d="M242.342,186.795c20.251-0.045,40.588-1.524,60.769,0.769c0.869,0.099,2.007-1.135,0.701-1.283
			c-20.182-2.293-40.52-0.814-60.769-0.769C242.198,185.514,241.035,186.798,242.342,186.795L242.342,186.795z"/>
	</g>
</g>
<g>
	<g>
		<path d="M241.833,202.229c20.43-0.046,40.88-1.475,61.29-0.003c0.923,0.066,1.985-1.281,0.677-1.376
			c-20.576-1.483-41.19-0.049-61.787-0.003C240.921,200.85,240.52,202.232,241.833,202.229L241.833,202.229z"/>
	</g>
</g>
<g>
	<g>
		<path d="M402.52,104.878c-12.798-2.581-22.426,6.206-23.201,18.906c-0.798,13.057,9.691,23.383,22.713,22.885
			c21.985-0.841,19.29-41.554-0.28-44.868c-0.583-0.099-2.275,0.83-1.193,1.013c16.456,2.787,21.262,35.295,5.586,42.054
			c-5.062,2.183-11.479-0.193-15.954-2.716c-4.884-2.752-7.587-8.13-8.606-13.442c-2.409-12.552,5.986-25.592,19.743-22.818
			C401.91,106.009,403.603,105.097,402.52,104.878L402.52,104.878z"/>
	</g>
</g>
<g>
	<g>
		<path d="M394.034,125.644c0.372,0.876-0.27,1.813,0.064,2.62c0.393,0.948,3.021-0.187,3.534-0.385
			c0.51-0.198,0.949-0.597,0.102-0.544c-0.378,0.024-0.752,0.128-1.097,0.282c-0.054,0.024-0.5,0.22-0.418,0.356
			c0.287,0.471,1.675,0.414,2.14,0.431c0.976,0.036,2.116-0.187,2.896-0.801c0.253-0.2-0.067-0.277-0.237-0.279
			c-0.922-0.012-1.754-0.25-2.649-0.329c-0.825-0.073-1.649,0.247-2.379,0.601c0.505-0.054,1.01-0.108,1.515-0.162
			c-0.238-0.832-0.483-1.661-0.736-2.489c-0.139-0.457-0.392-2.16-0.955-2.298c-0.4-0.099-1.547,0.114-1.748,0.536
			c-0.226,0.473,1.933,1.707,2.28,1.93c1.246,0.799,2.574,1.469,3.896,2.13c0.394,0.196,1.662-0.072,1.863-0.5
			c0.318-0.675,0.817-1.713-0.046-2.183c-0.563-0.306-1.413-0.146-1.478-0.973c-0.023-0.301-1.969,0.035-1.932,0.518
			c0.052,0.667,0.616,0.824,1.18,0.966c1.119,0.282,0.775,1.182,0.375,2.031c0.621-0.167,1.242-0.333,1.863-0.5
			c-0.983-0.491-1.958-0.996-2.913-1.539c-0.302-0.172-3.33-1.945-3.189-2.241c-0.583,0.179-1.166,0.357-1.749,0.536
			c-0.218-0.053,0.095,0.47,0.179,0.716c0.182,0.53,0.344,1.066,0.507,1.602c0.23,0.756,0.453,1.514,0.671,2.273
			c0.104,0.364,1.333-0.074,1.515-0.162c0.131-0.066,0.264-0.128,0.398-0.187c-0.647,0.046-0.817,0.09-0.51,0.132
			c0.178,0.031,0.354,0.089,0.529,0.131c0.73,0.174,1.501,0.187,2.247,0.196c-0.079-0.093-0.158-0.186-0.237-0.279
			c0.476-0.113,0.513-0.153,0.111-0.119c-0.263,0.002-0.523-0.035-0.783-0.071c-0.093-0.013-0.644-0.061-0.69-0.139
			c-0.14,0.119-0.278,0.237-0.418,0.356c-0.284,0.08-0.568,0.16-0.854,0.241c0.034-0.182,0.068-0.362,0.102-0.544
			c-0.803,0.311-1.106,0.426-0.975-0.492c0.094-0.65,0.225-1.26-0.042-1.889C395.784,124.698,393.906,125.342,394.034,125.644
			L394.034,125.644z"/>
	</g>
</g>
<g>
	<g>
		<path d="M492.57,411.037c9.934-3.167,12.521-14.403,12.664-23.719c0.098-6.349-1.755-12.459-7.422-15.867
			c-4.182-2.514-9.457,0.041-12.926,2.49c-1.068,0.755,0.593,1.001,1.199,0.572c12.998-9.177,17.728,6.623,17.081,16.313
			c-0.488,7.312-3.052,16.756-10.856,19.243C491.179,410.432,491.418,411.404,492.57,411.037L492.57,411.037z"/>
	</g>
</g>
<g>
	<g>
		<path d="M411.535,305.717c-5.654,12.897-8.454,26.692-7.937,40.79c0.408,11.105,2.16,23.355,11.279,30.814
			c0.589,0.481,2.396-0.295,1.783-0.797c-8.692-7.11-10.561-18.611-11.082-29.226c-0.703-14.286,2.041-28.382,7.776-41.461
			C413.766,304.9,411.826,305.053,411.535,305.717L411.535,305.717z"/>
	</g>
</g>
<g>
	<g>
		<path d="M470.205,428.314c8.575,1.646,17.234,2.095,25.945,2.405c10.17,0.361,20.319,1.142,30.49,1.506
			c16.677,0.597,33.558-1.02,48.981-7.741c1.222-0.532,0.126-1.439-0.824-1.025c-16.229,7.072-33.818,8.044-51.282,7.316
			c-17.2-0.717-35.238-0.428-52.174-3.68C470.587,426.951,469.052,428.093,470.205,428.314L470.205,428.314z"/>
	</g>
</g>
<g>
	<g>
		<path d="M382.306,365.122c7.18,0,14.358,0,21.538,0c0.668,0,2.076-1.014,0.773-1.014c-7.18,0-14.358,0-21.538,0
			C382.411,364.108,381.003,365.122,382.306,365.122L382.306,365.122z"/>
	</g>
</g>
<g>
	<g>
		<path d="M480.501,373.158c2.405-16.753,5.271-33.678,13.547-48.675c2.375-4.305,3.778,3.052,3.83,3.275
			c0.523,2.283-1.392,5.796-2.18,7.914c-1.591,4.276-3.334,8.496-5.02,12.735c-3.258,8.189-6.145,16.468-7.99,25.099
			c-0.158,0.736,1.79,0.423,1.932-0.24c2.328-10.885,6.408-21.135,10.521-31.44c1.69-4.235,5.147-9.987,4.668-14.585
			c-0.177-1.699-0.399-6.387-3.23-5.932c-2.919,0.469-3.743,2.062-5.147,4.608c-2.474,4.482-4.334,9.294-5.956,14.137
			c-3.609,10.773-5.297,22.136-6.906,33.344C478.459,374.167,480.406,373.819,480.501,373.158L480.501,373.158z"/>
	</g>
</g>
<g>
	<g>
		<path d="M421.574,306.949c-2.475,13.996-3.941,28.212-2.639,42.415c0.991,10.811,4.901,21.346,13.765,28.054
			c0.554,0.419,2.321-0.386,1.523-0.99c-9.193-6.957-12.476-17.979-13.488-29.019c-1.243-13.558,0.419-27.33,2.778-40.674
			C423.659,305.914,421.701,306.229,421.574,306.949L421.574,306.949z"/>
	</g>
</g>
<g>
	<g>
		<path d="M464.936,417.884c5.473,2.091,11.112,1.658,16.883,1.896c8.426,0.346,16.843,0.981,25.265,1.43
			c14.621,0.779,29.794,1.702,44.38-0.013c11.742-1.38,21.608-7.368,28.843-16.639c8.45-10.827,14.982-22.797,18.543-36.09
			c3.941-14.716,2.532-29.131-0.26-43.87c-1.188-6.271-5.444-11.345-9.523-16.029c-4.76-5.466-10.295-10.335-16.046-14.726
			c-20.506-15.654-46.262-22.711-71.558-25.402c-15.496-1.648-31.157-1.418-46.683-0.326c-0.984,0.069-1.577,1.241-0.242,1.147
			c29.756-2.095,60.319-0.625,88.486,9.991c12.632,4.761,24.374,11.688,34.561,20.544c5.149,4.477,9.896,9.409,14.008,14.856
			c5.08,6.733,6.014,14.641,7.203,22.771c2.294,15.668-0.702,31.687-7.135,46.034c-2.775,6.189-6.65,11.438-10.461,16.994
			c-5.002,7.295-10.562,13.146-18.762,16.865c-7.435,3.373-16.32,3.402-24.318,3.438c-7.443,0.033-14.891-0.066-22.328-0.344
			c-7.916-0.295-15.826-0.795-23.732-1.274c-8.109-0.492-17.948,0.691-25.596-2.23C465.842,416.672,464.093,417.562,464.936,417.884
			L464.936,417.884z"/>
	</g>
</g>
<g>
	<g>
		<path d="M337.956,238.097c9.407,14.979,26.83,19.408,40.903,28.574c0.629,0.41,2.374-0.472,1.512-1.034
			c-13.971-9.1-31.292-13.47-40.635-28.349C339.328,236.639,337.466,237.316,337.956,238.097L337.956,238.097z"/>
	</g>
</g>
<g>
	<g>
		<path d="M365.014,236.667c5.082,3.082,7.746,8.707,13.076,11.539c0.65,0.346,2.395-0.558,1.512-1.027
			c-5.315-2.825-7.987-8.453-13.076-11.539C365.892,235.255,364.145,236.141,365.014,236.667L365.014,236.667z"/>
	</g>
</g>
<g>
	<g>
		<path d="M374.034,246.413c0.668,6.176-0.107,12.083-3.068,17.586c-0.201,0.374,1.632,0.219,1.914-0.306
			c3.004-5.582,3.762-11.553,3.086-17.798C375.915,245.424,373.97,245.82,374.034,246.413L374.034,246.413z"/>
	</g>
</g>
<g>
	<g>
		<path d="M396.342,121.028c0.525,2.289,0.089,4.677,0.77,6.923c0.229,0.757,1.999,0.239,1.932-0.518
			c-0.138-1.546-1.349-3.616-2.38-4.749c-0.419,0.329-0.838,0.658-1.257,0.988c2.052,0,4.103,0,6.153,0
			c-0.141-0.264-0.281-0.528-0.422-0.792c-0.673,0.673-1.329,1.405-2.135,1.922c-0.74,0.476-1.773,0.604-2.609,0.814
			c0.372,0.144,0.743,0.287,1.114,0.431c0.091-1.064,0.679-2.013,0.77-3.077c0.073-0.856-1.878-0.504-1.939,0.213
			c-0.091,1.064-0.679,2.013-0.77,3.077c-0.048,0.565,0.762,0.52,1.114,0.431c1.132-0.283,2.327-0.526,3.352-1.111
			c1.026-0.587,1.845-1.478,2.674-2.306c0.389-0.389,0.064-0.792-0.422-0.792c-2.052,0-4.103,0-6.153,0
			c-0.324,0-1.798,0.393-1.257,0.988c0.985,1.082,2.103,2.993,2.235,4.481c0.644-0.172,1.288-0.345,1.932-0.518
			c-0.679-2.241-0.244-4.636-0.77-6.923C398.104,119.768,396.167,120.269,396.342,121.028L396.342,121.028z"/>
	</g>
</g>
<g>
	<g>
		<path d="M493.658,321.28c-0.597-2.651-0.846-5.745,0.793-8.091c1.076-1.542,2.741-2.085,4.429-2.062
			c3.098,0.044,7.534,2.553,5.759,6.211c-1.278,2.634-4.428,4.182-6.948,5.323c-1.225,0.554-0.105,1.231,0.773,0.833
			c3.421-1.549,11.088-5.689,7.718-10.546c-2.23-3.213-7.515-3.652-10.793-2.083c-4.241,2.031-4.586,6.83-3.662,10.933
			C491.884,322.495,493.82,321.999,493.658,321.28L493.658,321.28z"/>
	</g>
</g>
<g>
	<g>
		<path d="M335.939,149.865c3.062-0.814,5.152-2.563,6.904-5.153c0.582-0.861-1.391-0.857-1.84-0.193
			c-1.379,2.039-2.991,3.437-5.404,4.079C334.411,148.913,334.751,150.181,335.939,149.865L335.939,149.865z"/>
	</g>
</g>
<g>
	<g>
		<path d="M332.899,184.48c6.193,2.371,12.068,5.339,17.507,9.142c0.676,0.473,2.385-0.469,1.496-1.091
			c-5.552-3.882-11.561-6.901-17.879-9.32C333.232,182.909,331.76,184.044,332.899,184.48L332.899,184.48z"/>
	</g>
</g>
<g>
	<g>
		<path d="M324.871,211.144c5.29,3.733,10.864,7.036,16.154,10.77c0.551,0.389,2.31-0.387,1.796-0.749
			c-5.29-3.733-10.864-7.037-16.154-10.77C326.116,210.006,324.357,210.781,324.871,211.144L324.871,211.144z"/>
	</g>
</g>
<g>
	<g>
		<path d="M227.15,209.877c-1.458,4.14-4.415,6.498-8.488,7.898c-1.158,0.398-0.814,1.777,0.367,1.371
			c4.655-1.601,8.293-4.253,9.974-9.024C229.381,209.051,227.446,209.037,227.15,209.877L227.15,209.877z"/>
	</g>
</g>
<g>
	<g>
		<path d="M217.952,198.762c-1.669,0.524-3.324,0.78-4.925-0.074c-1.546-0.825-2.146-2.738-2.446-4.332
			c-0.121-0.645-2.062-0.172-1.932,0.518c0.386,2.053,1.23,3.878,3.135,4.894c1.931,1.03,4.451,0.55,6.418-0.068
			C219.335,199.344,219.102,198.401,217.952,198.762L217.952,198.762z"/>
	</g>
</g>
<g>
	<g>
		<path d="M219.752,167.349c-1.577-1.539-3.424-2.842-5.385-3.846c-0.378-0.193-0.878-0.071-1.254,0.071
			c-0.077,0.029-0.908,0.437-0.558,0.616c1.961,1.004,3.808,2.307,5.385,3.846C218.336,168.423,220.123,167.71,219.752,167.349
			L219.752,167.349z"/>
	</g>
</g>
<g>
	<g>
		<path d="M232.889,157.434c-1.618-3.137-3.991-5.559-7.133-7.18c-0.657-0.339-2.399,0.573-1.512,1.03
			c2.917,1.505,5.206,3.744,6.713,6.667C231.345,158.705,233.236,158.107,232.889,157.434L232.889,157.434z"/>
	</g>
</g>
<g>
	<g>
		<path d="M277.298,160.873c2.207-1.493,4.021-3.3,5.514-5.507c0.448-0.662-1.471-0.417-1.778,0.037
			c-1.431,2.115-3.139,3.831-5.255,5.262c-0.334,0.226-0.211,0.524,0.154,0.574C276.407,161.304,276.91,161.136,277.298,160.873
			L277.298,160.873z"/>
	</g>
</g>
<g>
	<g>
		<path d="M335.869,613.293c10.134,2.904,20.067,6.389,29.889,10.209c0.312-0.293,0.623-0.585,0.935-0.878
			c-0.408,0.075-0.815,0.15-1.223,0.226c-0.844,0.156-1.65,1.153-0.309,0.906c-0.961-0.925-2.089-0.709-3.384,0.648
			c-3.378,0.632-3.821,0.534-1.331-0.293c4.886-1.197,5.808-1.333,2.764-0.407c0.703-0.228-4.569,1.495-3.019,0.848
			c5.544-1.658,5.843-1.896,0.896-0.714c-1.868,0.386-3.746,0.721-5.624,1.057c-3.125,0.559-6.269,1.012-9.414,1.442
			c-12.535,1.717-25.199,2.364-37.837,2.698c-12.197,0.322-24.402,0.233-36.602,0.244c-5.804,0.005-11.606,0.04-17.409,0.127
			c-3.815,0.058-7.387,0.349-11.009-1.102c-2.717-1.088-5.103-3.186-7.342-5.016c-0.471-0.385-2.233,0.362-1.806,0.711
			c3.181,2.601,6.304,4.924,10.286,6.086c4.529,1.321,10.239,0.244,14.885,0.196c12.226-0.127,24.453-0.011,36.68-0.11
			c23.744-0.194,47.525-1.438,70.749-6.696c0.581-0.132,1.338-0.872,0.289-0.873c-3.904-0.001-7.286,1.097-10.767,2.83
			c-0.78,0.389-0.146,0.743,0.426,0.666c3.472-0.474,6.718-1.583,10.052-2.623c0.328-0.103,1.399-0.711,0.501-0.863
			c-3.876-0.657-6.9,0.686-10.505,2.072c-0.354,0.137-0.983,0.677-0.248,0.78c3.834,0.537,6.967-0.648,10.505-2.072
			c0.802-0.323,0.678-0.931-0.205-0.769c-0.408,0.075-0.815,0.15-1.223,0.226c-0.844,0.156-1.65,1.153-0.309,0.906
			c0.408-0.075,0.815-0.15,1.223-0.226c0.195-0.036,1.676-0.589,0.935-0.878c-9.822-3.819-19.755-7.304-29.889-10.209
			C336.912,612.296,335.175,613.094,335.869,613.293L335.869,613.293z"/>
	</g>
</g>
<g>
	<g>
		<path d="M243.9,617.419c22.974-12.271,49.296-13.008,74.43-8.303c0.553,0.104,2.27-0.775,1.203-0.975
			c-25.971-4.861-53.11-3.861-76.808,8.795C241.58,617.549,243.322,617.728,243.9,617.419L243.9,617.419z"/>
	</g>
</g>
<g>
	<g>
		<path d="M456.909,268.665c-8.787,0.331-15.275,7.144-20.282,13.712c-6.697,8.785-11.856,19.432-14.903,30.046
			c-0.207,0.722,1.741,0.445,1.936-0.23c2.349-8.185,6.053-15.972,10.415-23.265c4.602-7.694,12.123-18.754,22.093-19.13
			C456.902,269.77,458.21,268.616,456.909,268.665L456.909,268.665z"/>
	</g>
</g>
<g>
	<g>
		<path d="M409.728,308.415c5.201-5.468,7.591-12.44,10.126-19.399c0.163-0.448-1.719-0.219-1.912,0.312
			c-2.505,6.874-4.831,13.769-9.978,19.18C407.507,308.988,409.383,308.777,409.728,308.415L409.728,308.415z"/>
	</g>
</g>
<g>
	<g>
		<path d="M580.972,283.261c8.053,9.358,17.321,17.721,23.516,28.528c0.329,0.574,2.167-0.108,1.932-0.518
			c-6.233-10.875-15.536-19.303-23.641-28.721C582.402,282.114,580.562,282.786,580.972,283.261L580.972,283.261z"/>
	</g>
</g>
<g>
	<g>
		<path d="M337.924,604.104c18.488-2.654,35.714,5.063,52.383,11.982c3.584,1.488,7.186,2.926,10.825,4.271
			c1.717,0.636,5.333,0.854,1.797,1.855c-2.833,0.803-5.747,1.282-8.655,1.715c-9.521,1.417-19.279,1.021-28.873,1.001
			c-0.603-0.001-2.096,0.909-0.801,0.912c14.161,0.03,28.382,0.391,42.039-3.926c0.164-0.052,1.342-0.572,0.683-0.791
			c-22.636-7.489-44.306-21.44-69.079-17.886C337.4,603.359,336.572,604.297,337.924,604.104L337.924,604.104z"/>
	</g>
</g>
<g>
	<g>
		<path d="M193.324,111.112c6.88,7.993,15.548,13.389,25.665,16.275c11.175,3.188,23.832,0.954,33.566,8.34
			c0.458,0.348,2.175-0.412,1.812-0.687c-8.111-6.155-18.328-5.829-27.965-7.216c-12.249-1.763-23.236-8.072-31.266-17.399
			C194.791,110.023,192.963,110.693,193.324,111.112L193.324,111.112z"/>
	</g>
</g>
<g>
	<g>
		<path d="M306.341,77.182c-0.001,4.596-0.065,9.168-0.766,13.719c-0.108,0.702,1.832,0.349,1.926-0.264
			c0.715-4.636,0.771-9.293,0.772-13.973C308.273,76.123,306.341,76.471,306.341,77.182L306.341,77.182z"/>
	</g>
</g>
<g>
	<g>
		<path d="M228.649,78.72c1.198,16.891,37.919,6.737,19.564-10.604c-0.408-0.385-2.188,0.334-1.812,0.689
			c2.724,2.574,5.301,5.708,5.261,9.643c-0.035,3.418-2.978,5.987-5.869,7.242c-6.426,2.789-14.669,0.176-15.212-7.489
			C230.549,77.757,228.606,78.121,228.649,78.72L228.649,78.72z"/>
	</g>
</g>
<g>
	<g>
		<path d="M205.572,74.874c1.713,11.647,2.369,24.167,14.479,29.579c13.199,5.898,30.347,3.749,40.993-6.053
			c10.429-9.601,13.283-26.62,6.823-39.249c-7.565-14.79-23.399-12.325-37.409-12.209c-1.134,0.009-1.457,1.511-0.148,1.5
			c12.85-0.106,27.607-2.725,35.186,10.392c6.951,12.03,4.057,27.811-4.92,37.761c-9.884,10.956-27.742,11.713-40.531,5.999
			c-10.743-4.801-11.069-18.236-12.541-28.238C207.364,73.405,205.429,73.898,205.572,74.874L205.572,74.874z"/>
	</g>
</g>
<g>
	<g>
		<path d="M228.05,129.598c5.237,1.555,10.191,3.681,15.758,3.086c0.181-0.019,1.869-0.534,1.217-0.743
			c-4.284-1.371-8.671-2.208-13.077-3.076c-0.445-0.088-2.111,0.631-1.591,0.733c4.405,0.869,8.793,1.706,13.077,3.077
			c0.406-0.248,0.812-0.496,1.217-0.743c-5.271,0.563-10.068-1.601-15.011-3.067C229.208,128.735,227.506,129.437,228.05,129.598
			L228.05,129.598z"/>
	</g>
</g>
<g>
	<g>
		<path d="M388.824,185.77c22.026,5.931,47.174,6.256,64.498,23.026c0.377,0.365,2.145-0.352,1.816-0.67
			c-17.391-16.836-42.621-17.174-64.732-23.127C389.944,184.875,388.234,185.611,388.824,185.77L388.824,185.77z"/>
	</g>
</g>
<g>
	<g>
		<path d="M444.448,416.058c8.697,4.118,16.565,10.418,26.378,11.594c0.982,0.117,1.957-1.301,0.654-1.457
			c-9.625-1.153-17.389-7.438-25.929-11.482C444.714,414.315,443.325,415.525,444.448,416.058L444.448,416.058z"/>
	</g>
</g>
<g>
	<g>
		<path d="M601.802,308.868c3.141,2.853,5.035,6.482,5.865,10.625c0.161,0.807,2.099,0.314,1.932-0.518
			c-0.849-4.236-2.805-8-6.018-10.919C602.994,307.521,601.171,308.294,601.802,308.868L601.802,308.868z"/>
	</g>
</g>
<g>
	<g>
		<path d="M534.812,260.206c-24.28-4.729-48.923-7.719-73.693-6.793c-20.939,0.782-33.386,21.735-43.18,37.309
			c-0.512,0.815,1.445,0.683,1.814,0.096c5.285-8.405,10.519-16.809,17.35-24.075c8.464-9.005,18.873-12.181,30.948-12.331
			c22.024-0.273,44.025,2.719,65.599,6.921C534.327,261.464,535.938,260.425,534.812,260.206L534.812,260.206z"/>
	</g>
</g>
<g>
	<g>
		<path d="M455.572,406.413c0.874,5.983,4.895,9.455,10.208,11.786c0.651,0.285,2.395-0.628,1.516-1.014
			c-5.132-2.251-8.946-5.504-9.792-11.29C457.393,405.136,455.453,405.602,455.572,406.413L455.572,406.413z"/>
	</g>
</g>
<g>
	<g>
		<path d="M606.342,317.951c2.021,12.774,0.553,25.668,0.998,38.524c0.025,0.723,1.96,0.308,1.932-0.518
			c-0.445-12.864,1.024-25.741-0.998-38.524C608.153,316.676,606.215,317.147,606.342,317.951L606.342,317.951z"/>
	</g>
</g>
<g>
	<g>
		<path d="M607.096,354.682c0.868,13.17-3.817,26.933-8.771,38.917c-4.569,11.051-11.703,26.635-23.759,31.19
			c-1.236,0.467-0.146,1.575,0.869,1.191c11.884-4.49,18.899-18.999,23.73-29.779c5.628-12.559,10.812-27.685,9.892-41.652
			C608.988,353.506,607.037,353.788,607.096,354.682L607.096,354.682z"/>
	</g>
</g>
<g>
	<g>
		<path d="M532.129,260.634c20.361,6.092,40.951,16.811,56.601,31.324c0.619,0.574,2.443-0.215,1.771-0.838
			c-15.837-14.687-36.617-25.581-57.247-31.753C532.454,259.127,530.97,260.287,532.129,260.634L532.129,260.634z"/>
	</g>
</g>
<g>
	<g>
		<path d="M488.684,371.702c-9.212,1.67-27.581-2.327-30.184,10.446c-3.249,15.943,19.928,28.888,33.075,29.274
			c0.869,0.026,2.005-1.269,0.695-1.307c-13.361-0.395-32.617-12.192-31.939-27.165c0.555-12.261,20.631-8.579,28.677-10.038
			C490.225,372.692,489.867,371.487,488.684,371.702L488.684,371.702z"/>
	</g>
</g>
<g>
	<g>
		<path d="M462.035,373.033c4.018-4.55,9.469-6.201,15.426-5.676c0.468,0.042,2.239-0.78,1.23-0.869
			c-6.923-0.611-13.727,1.316-18.42,6.633C459.816,373.635,461.701,373.412,462.035,373.033L462.035,373.033z"/>
	</g>
</g>
<g>
	<g>
		<path d="M485.756,367.341c3.141,0.829,5.991,2.286,8.34,4.55c0.422,0.405,2.219-0.31,1.809-0.705
			c-2.409-2.32-5.364-3.831-8.584-4.681C486.811,366.37,485.082,367.163,485.756,367.341L485.756,367.341z"/>
	</g>
</g>
<g>
	<g>
		<path d="M243.654,616.723c-3.285,1.681-6.321,3.951-8.075,7.271c-0.215,0.408,1.634,0.242,1.918-0.295
			c1.588-3.005,4.338-5.055,7.31-6.575C245.958,616.534,244.187,616.45,243.654,616.723L243.654,616.723z"/>
	</g>
</g>
<g>
	<g>
		<path d="M309.603,605.804c3.24,0.766,6.5,0.995,9.819,0.776c0.597-0.04,2.084-1.015,0.796-0.93
			c-3.057,0.201-6.066,0.021-9.052-0.685C310.654,604.845,308.935,605.646,309.603,605.804L309.603,605.804z"/>
	</g>
</g>
<g>
	<g>
		<path d="M339.456,613.389c-8.501-1.83-15.882-7.304-24.827-6.931c-0.604,0.025-2.089,0.983-0.796,0.93
			c8.688-0.362,16.121,5.132,24.403,6.915C338.741,614.411,340.492,613.612,339.456,613.389L339.456,613.389z"/>
	</g>
</g>
<g>
	<g>
		<path d="M339.698,601.59c-10.8,0.733-21.833,0.767-32.052,4.753c-1.233,0.481-0.142,1.552,0.861,1.16
			c9.846-3.842,20.626-3.772,31.025-4.478C340.628,602.95,341.015,601.501,339.698,601.59L339.698,601.59z"/>
	</g>
</g>
<g>
	<g>
		<path d="M460.188,374.104c0,2.308,0,4.616,0,6.924c0,0.589,1.932,0.226,1.932-0.518c0-2.308,0-4.616,0-6.924
			C462.119,372.998,460.188,373.361,460.188,374.104L460.188,374.104z"/>
	</g>
</g>
<g>
	<g>
		<path d="M376.162,365.933c3.077,0,6.154,0,9.23,0c0.722,0,2.058-1.096,0.752-1.096c-3.077,0-6.154,0-9.23,0
			C376.192,364.837,374.856,365.933,376.162,365.933L376.162,365.933z"/>
	</g>
</g>
</svg>
